<svg viewBox="0 0 24 24" fill="none" xmlns="http://www.w3.org/2000/svg">
  <path d="M14 4C14 4 12 2 10 2C8 2 6 4 6 7V19C6 21 8 23 10 23H14C16 23 18 21 18 19V7C18 4 16 4 14 4Z" stroke="black" stroke-width="2" stroke-linecap="round" stroke-linejoin="round"/>
  <path d="M14 7H10" stroke="black" stroke-width="2" stroke-linecap="round" stroke-linejoin="round"/>
  <path d="M14 12H10" stroke="black" stroke-width="2" stroke-linecap="round" stroke-linejoin="round"/>
  <path d="M14 17H10" stroke="black" stroke-width="2" stroke-linecap="round" stroke-linejoin="round"/>
  <path d="M6 7L5 9" stroke="black" stroke-width="2" stroke-linecap="round" stroke-linejoin="round"/>
  <path d="M18 7L19 9" stroke="black" stroke-width="2" stroke-linecap="round" stroke-linejoin="round"/>
  <path d="M6 12L5 14" stroke="black" stroke-width="2" stroke-linecap="round" stroke-linejoin="round"/>
  <path d="M18 12L19 14" stroke="black" stroke-width="2" stroke-linecap="round" stroke-linejoin="round"/>
</svg>
