<svg viewBox="0 0 24 24" fill="none" xmlns="http://www.w3.org/2000/svg">
  <path d="M14 6C14 6 12 8 10 8C8 8 6 6 6 3V14C6 17 8 19 10 19H14C16 19 18 17 18 14V3C18 6 16 8 14 6Z" stroke="black" stroke-width="2" stroke-linecap="round" stroke-linejoin="round"/>
  <path d="M12 8V5" stroke="black" stroke-width="2" stroke-linecap="round" stroke-linejoin="round"/>
  <path d="M14 6V3" stroke="black" stroke-width="2" stroke-linecap="round" stroke-linejoin="round"/>
  <path d="M6 14L5 17" stroke="black" stroke-width="2" stroke-linecap="round" stroke-linejoin="round"/>
  <path d="M18 14L19 17" stroke="black" stroke-width="2" stroke-linecap="round" stroke-linejoin="round"/>
  <path d="M8 19H16" stroke="black" stroke-width="2" stroke-linecap="round" stroke-linejoin="round"/>
  <path d="M10 22L8 19" stroke="black" stroke-width="2" stroke-linecap="round" stroke-linejoin="round"/>
  <path d="M14 22L16 19" stroke="black" stroke-width="2" stroke-linecap="round" stroke-linejoin="round"/>
</svg>
